<?xml version="1.0" encoding="UTF-8"?>
<!DOCTYPE svg PUBLIC "-//W3C//DTD SVG 1.1//EN" "http://www.w3.org/Graphics/SVG/1.1/DTD/svg11.dtd">
<!-- Creator: CorelDRAW -->
<svg xmlns="http://www.w3.org/2000/svg" xml:space="preserve" width="56px" height="56px" version="1.1" style="shape-rendering:geometricPrecision; text-rendering:geometricPrecision; image-rendering:optimizeQuality; fill-rule:evenodd; clip-rule:evenodd"
viewBox="0 0 56 56"
 xmlns:xlink="http://www.w3.org/1999/xlink"
 xmlns:xodm="http://www.corel.com/coreldraw/odm/2003">
 <defs>
  <style type="text/css">
   <![CDATA[
    .fil1 {fill:black}
    .fil0 {fill:#2B2A29;fill-rule:nonzero}
   ]]>
  </style>
 </defs>
 <g id="Capa_x0020_1">
  <metadata id="CorelCorpID_0Corel-Layer"/>
  <g id="_2740236084736">
   <path class="fil0" d="M6.88 3.48l42.29 0 0 34.06 -19.99 0 -16.87 16.73 0 -16.73 -7.23 0 0 -34.06 1.8 0zm38.71 3.58l-36.92 0 0 26.89 7.22 0 0 11.73 11.82 -11.73 17.88 0 0 -26.89z"/>
   <path class="fil1" d="M16.99 26.61c0,1.61 -0.34,3.37 1.13,3.37l17.94 0c1.63,0 1.75,-3.87 -0.26,-5.34 -4.58,-3.35 -12.47,-3.37 -17.25,-0.11 -0.58,0.39 -1.56,1.36 -1.56,2.08zm5.61 -12.89c0,6.78 8.98,6.78 8.98,0 0,-2.04 -1.95,-3.93 -5.05,-3.93 -1.75,0 -3.93,2.18 -3.93,3.93z"/>
  </g>
 </g>
</svg>
