<?xml version="1.0" encoding="UTF-8"?>
<!DOCTYPE svg PUBLIC "-//W3C//DTD SVG 1.1//EN" "http://www.w3.org/Graphics/SVG/1.1/DTD/svg11.dtd">
<!-- Creator: CorelDRAW -->
<svg xmlns="http://www.w3.org/2000/svg" xml:space="preserve" width="56px" height="56px" version="1.1" style="shape-rendering:geometricPrecision; text-rendering:geometricPrecision; image-rendering:optimizeQuality; fill-rule:evenodd; clip-rule:evenodd"
viewBox="0 0 56 56"
 xmlns:xlink="http://www.w3.org/1999/xlink"
 xmlns:xodm="http://www.corel.com/coreldraw/odm/2003">
 <defs>
  <style type="text/css">
   <![CDATA[
    .fil0 {fill:#2B2A29}
   ]]>
  </style>
 </defs>
 <g id="Capa_x0020_1">
  <metadata id="CorelCorpID_0Corel-Layer"/>
  <path class="fil0" d="M9.38 9.49l35.59 0.39 0.01 23.48c-5.64,1.22 -13.22,-1.03 -18.17,1.29 -4.15,1.95 -5.82,6.45 -10.46,8.51l-0.23 -9.25 -6.85 -0.16 0.11 -24.26zm24.58 14.01l3.3 0.05 0.23 -3.96 -3.34 0.01 -0.19 3.9zm0.19 6.8l3.36 0.23c0.22,-5.63 1.55,-3.77 -2.82,-4.39 -1.2,1.91 -1.19,0.73 -0.54,4.16zm0 -13.61l3.36 0.24c0.22,-5.63 1.55,-3.78 -2.82,-4.4 -1.2,1.91 -1.19,0.73 -0.54,4.16zm-17.86 6.84l14.25 0.04 0.26 -4.02 -14.28 0.01 -0.23 3.97zm-0.12 6.29l14.37 0.6 0.5 -4.33 -14.83 0.01 -0.04 3.72zm0 -13.61l14.37 0.6 0.5 -4.33 -14.83 0.01 -0.04 3.72zm-10.84 20.41c1.79,2.6 2.87,1.47 7,1.65l0.01 13.97c2.9,-1.27 10.95,-9.36 13.55,-11.77 4.79,-4.46 11.9,-1.44 22.79,-2.53l0.25 -32.02 -43.6 -0.42 0 31.12z"/>
 </g>
</svg>
