<?xml version="1.0" encoding="UTF-8"?>
<!DOCTYPE svg PUBLIC "-//W3C//DTD SVG 1.1//EN" "http://www.w3.org/Graphics/SVG/1.1/DTD/svg11.dtd">
<!-- Creator: CorelDRAW -->
<svg xmlns="http://www.w3.org/2000/svg" xml:space="preserve" width="56px" height="56px" version="1.1" style="shape-rendering:geometricPrecision; text-rendering:geometricPrecision; image-rendering:optimizeQuality; fill-rule:evenodd; clip-rule:evenodd"
viewBox="0 0 56 56"
 xmlns:xlink="http://www.w3.org/1999/xlink"
 xmlns:xodm="http://www.corel.com/coreldraw/odm/2003">
 <defs>
  <style type="text/css">
   <![CDATA[
    .str0 {stroke:#2B2A29;stroke-width:0.9;stroke-miterlimit:22.9256}
    .fil0 {fill:#2B2A29;fill-rule:nonzero}
   ]]>
  </style>
 </defs>
 <g id="Capa_x0020_1">
  <metadata id="CorelCorpID_0Corel-Layer"/>
  <path class="fil0 str0" d="M31.87 3.95l12.47 12.85 0 37.24 -34.42 0 0 -50.34 21.72 0 0.23 0.25zm3.32 38.65l2.79 0 0 1.8 -2.79 0 0 -1.8zm-17.91 0l13.68 0 0 1.8 -13.68 0 0 -1.8zm17.91 -8.93l2.79 0 0 1.8 -2.79 0 0 -1.8zm-17.91 0l13.68 0 0 1.8 -13.68 0 0 -1.8zm17.91 -9.1l2.79 0 0 1.79 -2.79 0 0 -1.79zm-17.91 0l13.68 0 0 1.79 -13.68 0 0 -1.79zm-6.02 -19.53l0 47.66 31.74 0 0 -35.06 -12.23 -0.39 0 -12.21 -19.51 0z"/>
 </g>
</svg>
