<?xml version="1.0" encoding="UTF-8"?>
<!DOCTYPE svg PUBLIC "-//W3C//DTD SVG 1.1//EN" "http://www.w3.org/Graphics/SVG/1.1/DTD/svg11.dtd">
<!-- Creator: CorelDRAW -->
<svg xmlns="http://www.w3.org/2000/svg" xml:space="preserve" width="56px" height="56px" version="1.1" style="shape-rendering:geometricPrecision; text-rendering:geometricPrecision; image-rendering:optimizeQuality; fill-rule:evenodd; clip-rule:evenodd"
viewBox="0 0 56 56"
 xmlns:xlink="http://www.w3.org/1999/xlink"
 xmlns:xodm="http://www.corel.com/coreldraw/odm/2003">
 <defs>
  <style type="text/css">
   <![CDATA[
    .fil0 {fill:#2B2A29}
   ]]>
  </style>
 </defs>
 <g id="Capa_x0020_1">
  <metadata id="CorelCorpID_0Corel-Layer"/>
  <path class="fil0" d="M39.09 34.96c0.46,-2.49 0.33,-5.64 5.84,-5.14 5.14,0.46 2.12,0.48 3.48,1.37 -1.37,5.33 -2.92,3.9 -9.32,3.77zm-20.89 -3.77c2.86,-2.36 15.8,-2.54 19.31,0 -1.92,5.22 -3.14,3.74 -9.37,3.72 -11.54,-0.04 -7.71,-0.36 -9.94,-3.72zm-12.79 -1.53c7.05,-0.14 9.01,-1.39 10.45,5.23 -6.76,0.3 -9.26,1.29 -10.45,-5.23zm18.24 -14.91l7.86 0c6.59,0 8.78,1.38 9.91,7.13l-28.03 -0.06 1.89 -5.93 8.37 -1.14zm-19.36 5.25c1.16,2.04 0.07,0.63 1.62,2l1.94 1.36c-4.52,4.75 -4.7,4.16 -4.06,18.01 0.18,3.95 0.45,6.02 5.08,5.39 14.64,-2 -15.58,-4.26 28.25,-4.26 8.23,0 1.69,3.25 7.86,4.2 7.44,1.14 5.54,-5.34 5.54,-17.75 0,-3.85 -2.1,-4.14 -4.49,-5.49l2.32 -1.26c2.13,-1.54 1.12,0.12 2.35,-2.2 -6.52,-2.97 -3.81,2.06 -9.01,-4.55 -4.64,-5.89 -6.33,-4.41 -19.17,-4.41 -6.09,0 -6.71,1 -9.28,4.19 -5.45,6.75 -2.71,1.45 -8.95,4.77z"/>
 </g>
</svg>
